<svg width="79" height="79" viewBox="0 0 79 79" fill="none" xmlns="http://www.w3.org/2000/svg">
<path d="M11.5468 26.2791L15.7371 61.91H62.8018L66.9922 26.2791L53.9259 34.9889L39.2695 14.4705L24.613 34.9889L11.5468 26.2791ZM9.29518 16.9437L22.9773 26.0673L36.6171 6.9729C36.9185 6.55051 37.3164 6.20621 37.7778 5.96866C38.2391 5.73111 38.7505 5.60718 39.2695 5.60718C39.7884 5.60718 40.2998 5.73111 40.7611 5.96866C41.2225 6.20621 41.6204 6.55051 41.9218 6.9729L55.5616 26.0673L69.247 16.9437C69.7649 16.5991 70.3707 16.41 70.9927 16.3987C71.6147 16.3874 72.2269 16.5543 72.757 16.8799C73.2871 17.2054 73.713 17.6759 73.9842 18.2358C74.2555 18.7956 74.3608 19.4214 74.2878 20.0392L68.9342 65.5496C68.8408 66.3423 68.4598 67.073 67.8634 67.6034C67.267 68.1337 66.4967 68.4267 65.6986 68.4268H12.8403C12.0423 68.4267 11.2719 68.1337 10.6755 67.6034C10.0791 67.073 9.69811 66.3423 9.60473 65.5496L4.25113 20.0359C4.1788 19.4184 4.28465 18.7931 4.55619 18.2338C4.82773 17.6744 5.25363 17.2045 5.78361 16.8794C6.31359 16.5543 6.92552 16.3876 7.54716 16.399C8.16881 16.4104 8.77422 16.5994 9.29192 16.9437H9.29518ZM39.2695 48.8763C37.5411 48.8763 35.8835 48.1897 34.6613 46.9675C33.4392 45.7454 32.7526 44.0878 32.7526 42.3594C32.7526 40.631 33.4392 38.9735 34.6613 37.7513C35.8835 36.5292 37.5411 35.8426 39.2695 35.8426C40.9978 35.8426 42.6554 36.5292 43.8776 37.7513C45.0997 38.9735 45.7863 40.631 45.7863 42.3594C45.7863 44.0878 45.0997 45.7454 43.8776 46.9675C42.6554 48.1897 40.9978 48.8763 39.2695 48.8763Z" fill="#DD01A1"/>
</svg>
